Simulation
nRows=42
nColumns=15
endheader
time  TH_x TH_y TH_z SC_y  SC_z  SC_x  AC_y  AC_z  AC_x  GH_y  GH_z  GH_yy  EL_x  PS_y
0.0  0.000000  0.000000  0.000000  -27.682995104352436  3.380398539836636  18.249350954845614  49.36624785849895  -4.918780082772348  -8.678058054844895  100.89934479019054  3.508559424411751  -63.80186983028155  20.757044772978702  120.000000
0.02949999999999999  0.000000  0.000000  0.000000  -27.683265172552886  3.3964329302297105  16.43494061684275  49.539423418823446  -3.530635550714203  -7.408849898215254  96.80148405555876  3.4756218919875135  -59.87355365752086  20.751708844720895  120.000000
0.05899999999999998  0.000000  0.000000  0.000000  -27.682246987201648  3.395242815206507  14.730642167173599  49.680329858847806  -2.3063325206241845  -6.239337822367103  92.71685628875834  3.436854624076521  -55.93984764994237  20.708128974404904  120.000000
0.08849999999999997  0.000000  0.000000  0.000000  -27.673901721384293  3.37902182089606  13.16024084715947  49.777929619102906  -1.2475980269217146  -5.1740188228287485  88.63779210239245  3.401406616055768  -52.01628397204528  20.59826486571548  120.000000
0.11799999999999997  0.000000  0.000000  0.000000  -27.650438825000965  3.3628791099531865  11.722333860216285  49.839841276411946  -0.3343536850655927  -4.207448305917769  84.55992541706297  3.3878255820860494  -48.11991494287384  20.40935229922883  120.000000
0.14749999999999996  0.000000  0.000000  0.000000  -27.60958469422324  3.3556733688991884  10.415962495304584  49.87070672468376  0.4576555641679859  -3.336596228963071  80.48012061401549  3.4099440933106107  -44.271919858287845  20.13460410303057  120.000000
0.17699999999999994  0.000000  0.000000  0.000000  -27.553039233663664  3.3640158804562352  9.238171195105062  49.87267460018547  1.15251888537424  -2.556453499564942  76.40002729651832  3.4797382307959785  -40.494429991165724  19.777322450884682  120.000000
0.20649999999999993  0.000000  0.000000  0.000000  -27.484848879798932  3.3890456168909093  8.186059405025619  49.84729861795877  1.7729035933752408  -1.8625304762483277  72.32487134991587  3.6084816374677917  -36.81166417638299  19.34677374157142  120.000000
0.23599999999999993  0.000000  0.000000  0.000000  -27.410483649859707  3.4329082189717774  7.256142532474681  49.797442848636926  2.3381370326310487  -1.2495473625082518  68.26425590666804  3.8083448225864  -33.248969566605005  18.85970995509831  120.000000
0.2654999999999999  0.000000  0.000000  0.000000  -27.335891627681388  3.4952805470457293  6.4445459265509735  49.72677466299295  2.864627192412607  -0.712249018220414  64.23023068121242  4.090707478910032  -29.834322734678242  18.336103985578585  120.000000
0.29499999999999993  0.000000  0.000000  0.000000  -27.267888463338366  3.5764782803925455  5.746723378991153  49.63964519616334  3.364706265679787  -0.24395975128178085  60.23589929561721  4.466363367893963  -26.599153886341565  17.800069918466107  120.000000
0.3244999999999999  0.000000  0.000000  0.000000  -27.213455974750286  3.6750138761405373  5.157868177879443  49.54100115839523  3.847867698186548  0.16249960598699414  56.29384638731222  4.944699593876437  -23.579024273245082  17.277082240707575  120.000000
0.35399999999999987  0.000000  0.000000  0.000000  -27.180320249702575  3.7892633457779037  4.672137025919701  49.437341430158284  4.319910316850091  0.5155653900106353  52.415872015447924  5.534059932740326  -20.812798072706574  16.79465131855047  120.000000
0.3834999999999999  0.000000  0.000000  0.000000  -27.176415789006178  3.915138049260052  4.282751967205248  49.33790564043414  4.784046540346039  0.8242577779278273  48.613768300556394  6.241254959136184  -18.340317602329037  16.37956771253748  120.000000
0.41299999999999987  0.000000  0.000000  0.000000  -27.210665207157206  4.047294842432239  3.9821623252764273  49.25513476481132  5.241755624731257  1.0986452635307171  44.900981979637756  7.070747285987867  -16.198615630938754  16.056191991704722  120.000000
0.4424999999999999  0.000000  0.000000  0.000000  -27.292781360341078  4.178386422484018  3.763133031783783  49.20374049753504  5.695233675087075  1.3490854161057866  41.29488736542301  8.022846815696385  -14.416742445801942  15.841672991784911  120.000000
0.47199999999999986  0.000000  0.000000  0.000000  -27.433157506738414  4.300771056390525  3.6191462282598317  49.198767040677374  6.148893198439188  1.5860862674354352  37.818743071781256  9.092127623130345  -13.010279709775356  15.742850333269198  120.000000
0.5014999999999998  0.000000  0.000000  0.000000  -27.641431974790287  4.407654306862642  3.5444963134013037  49.25363086334295  6.610921592296125  1.8185652024104322  34.503237555904455  10.266455581765308  -11.975882818073005  15.75345529066325  120.000000
0.5309999999999998  0.000000  0.000000  0.000000  -27.925519458402945  4.495087682366923  3.533723797347187  49.37668017069096  7.093425534989014  2.0529964695497327  31.38487160100022  11.526920090896509  -11.289278890746532  15.854758242494126  120.000000
0.5604999999999999  0.000000  0.000000  0.000000  -28.291038289304193  4.561863457917901  3.5808827810160575  49.56810922322159  7.610981096499913  2.293097331330311  28.50154302859541  12.848993105854388  -10.907330350938146  16.018451636767114  120.000000
0.5899999999999999  0.000000  0.000000  0.000000  -28.73934620830145  4.610200664524661  3.6817398686977905  49.819446108215395  8.176222626646753  2.5385580380632433  25.885468672554016  14.205351737240466  -10.774769859061847  16.212424382063418  120.000000
0.6194999999999998  0.000000  0.000000  0.000000  -29.26634475492452  4.645099704460278  3.8296693637562353  50.114401167940535  8.799355093728852  2.7884023619010176  23.556453203754906  15.567924182443813  -10.832528321724588  16.40663348905799  120.000000
0.6489999999999998  0.000000  0.000000  0.000000  -29.860457483482634  4.6740018731743636  4.018304504445041  50.43167899886698  9.484080745059925  3.0407265630704714  21.516008543550665  16.90968229266346  -11.02685701726382  16.578560125301337  120.000000
0.6784999999999998  0.000000  0.000000  0.000000  -30.501705151022964  4.706061156247771  4.240934758881895  50.74784987362636  10.22829088482976  3.295010209592593  19.745226732835174  18.205530443548536  -11.315132624371719  16.71607927357536  120.000000
0.7079999999999997  0.000000  0.000000  0.000000  -31.163305505281013  4.751055840290027  4.492049222022314  51.040052278561895  11.024634847528517  3.552423632257107  18.206617411232386  19.4324798171775  -11.667077346522964  16.817835704936755  120.000000
0.7374999999999998  0.000000  0.000000  0.000000  -31.81386774316456  4.818708682266009  4.769377025851262  51.28824664073074  11.862805657312933  3.814652011215618  16.84952055841936  20.569821462754653  -12.06139715879311  16.89110410215904  120.000000
0.7669999999999998  0.000000  0.000000  0.000000  -32.42231094789354  4.916740116575954  5.074374767859564  51.476971363733796  12.732278973738206  4.083757905886844  15.616239111922507  21.599618523677734  -12.48127639051241  16.94907725353577  120.000000
0.7964999999999998  0.000000  0.000000  0.000000  -32.96163150968378  5.048974676979827  5.414042351272602  51.59634887085735  13.623332327351953  4.360419892293285  14.448397852887943  22.507356462554547  -12.909368819360118  17.007407402278115  120.000000
0.8259999999999997  0.000000  0.000000  0.000000  -33.41289717523132  5.214281238412562  5.800454789548669  51.643064831224365  14.527872286581307  4.643320929640068  13.292429285565442  23.2831595721113  -13.324082838079697  17.082189248119082  120.000000
0.8554999999999997  0.000000  0.000000  0.000000  -33.76613584345316  5.40598949941366  6.251150681261659  51.619322960374106  15.437501553036405  4.928460646712372  12.102689569123514  23.92289346776887  -13.698711645870972  17.18742006977381  120.000000
0.8849999999999998  0.000000  0.000000  0.000000  -34.02071321388758  5.613264368132755  6.786973073611532  51.53259009875818  16.34142510305819  5.209380361262114  10.843648864883555  24.429414069221366  -14.002531042243733  17.334169542009626  120.000000
0.9144999999999998  0.000000  0.000000  0.000000  -34.18379306398479  5.8222906456666195  7.431084602307174  51.39413888062208  17.223220786447424  5.477637509055089  9.490328799013064  24.81396854457834  -14.204083041937807  17.528985998763773  120.000000
0.9439999999999997  0.000000  0.000000  0.000000  -34.270337450422865  6.018221146642424  8.20607351108798  51.21862407963007  18.059664690952395  5.724231546201766  8.028929533936664  25.097161108611854  -14.274620893403018  17.7737494403313  120.000000
0.9734999999999997  0.000000  0.000000  0.000000  -34.30168856379059  6.187520974171463  9.131773629433377  51.02394694148807  18.82024029691222  5.939920513869001  6.456395610445036  25.30879302882332  -14.19212600071918  18.06524408227977  120.000000
1.0029999999999997  0.000000  0.000000  0.000000  -34.30518250544697  6.319845673836124  10.222561072026545  50.831586541022546  19.470031616563617  6.116655865852823  4.7798887082778  25.48608538420517  -13.944213720267474  18.396523208561188  120.000000
1.0324999999999998  0.000000  0.000000  0.000000  -34.310923266668205  6.409886328959824  11.485960307356175  50.66678709702463  19.974364411137373  6.248598157641598  3.015124622859374  25.670234173939903  -13.5304146504564  18.758417607797522  120.000000
1.0619999999999996  0.000000  0.000000  0.000000  -34.34921649382834  6.457431255127426  12.920929237230903  50.55701169998781  20.3052683033489  6.335452905590546  1.1841680909701  25.902218287442707  -12.96240197808621  19.14179194389776  120.000000
1.0914999999999997  0.000000  0.000000  0.000000  -34.44681040055695  6.467293481407708  14.513776266189778  50.52953514647093  20.445135726296463  6.382215660922444  -0.6875809457317659  26.215037120459467  -12.262585824256183  19.538433732153862  120.000000
1.1209999999999998  0.000000  0.000000  0.000000  -34.62324972261354  6.448071699039481  16.23509383956413  50.60839470670346  20.387702988508252  6.3962131275299035  -2.5741226889776376  26.62690417023853  -11.46077852809898  19.941563130188253  120.000000
1.1504999999999996  0.000000  0.000000  0.000000  -34.887244533911186  6.41161288405032  18.044297387441848  50.80890999015516  20.14050860517134  6.387256551497619  -4.450829406907479  27.14051634484202  -10.590582022329182  20.34586221825823  120.000000
1.1799999999999997  0.000000  0.000000  0.000000  -35.235219589689024  6.370198340150202  19.89485521453185  51.132928084539905  19.725874561256028  6.367162039384267  -6.294506030231805  27.745493816013948  -9.685095637725647  20.74769814870923  120.000000
1.2094999999999996  0.000000  0.000000  0.000000  -35.651677071953884  6.332549517121603  21.740834668756825  51.56571735934468  19.177321851866317  6.346867027262984  -8.083176622305272  28.419851783746406  -8.77352879699251  21.144156538465378  120.000000
